# xmcd CD database file
#
# Track frame offsets:
#	150
#	8292
#	35407
#	56242
#	77528
#	97672
#	121335
#	140431
#	171408
#	192415
#	217682
#	238393
#
# Disc length: 3463 seconds
#
# Revision: 7
# Processed by: cddbd v1.5.2PL0 Copyright (c) Steve Scherf et al.
# Submitted via: CDex 1.70beta2
#
DISCID=960d850c
DTITLE=Slipknot - All Hope Is Gone
DYEAR=2008
DGENRE=Heavy Metal
TTITLE0=execute.
TTITLE1=Gematria (The Killing Name)
TTITLE2=Sulfur
TTITLE3=Psychosocial
TTITLE4=Dead Memories
TTITLE5=Vendetta
TTITLE6=Butcher's Hook
TTITLE7=Gehenna
TTITLE8=This Cold Black
TTITLE9=Wherein Lies Continue
TTITLE10=Snuff
TTITLE11=All Hope Is Gone
EXTD=this dos not work i getiin very pissed i want my money back YEAR: 2008
EXTT0=
EXTT1=
EXTT2=
EXTT3=
EXTT4=
EXTT5=
EXTT6=
EXTT7=
EXTT8=
EXTT9=
EXTT10=
EXTT11=
PLAYORDER=
